<?xml version="1.0" encoding="utf-8"?>
<!-- Generator: Adobe Illustrator 16.0.0, SVG Export Plug-In . SVG Version: 6.00 Build 0)  -->
<!DOCTYPE svg PUBLIC "-//W3C//DTD SVG 1.1//EN" "http://www.w3.org/Graphics/SVG/1.1/DTD/svg11.dtd">
<svg version="1.1" id="Layer_1" xmlns="http://www.w3.org/2000/svg" xmlns:xlink="http://www.w3.org/1999/xlink" x="0px" y="0px"
	 width="512px" height="512px" viewBox="0 0 512 512" enable-background="new 0 0 512 512" xml:space="preserve">
<g>
	<path fill-rule="evenodd" clip-rule="evenodd" fill="#E6E6E5" d="M313.953,62.088c-8.775-3.736-17.554-7.471-26.327-11.207"/>
	<path fill-rule="evenodd" clip-rule="evenodd" fill="#E6E6E5" d="M302.052,52.356"/>
	<path fill-rule="evenodd" clip-rule="evenodd" fill="#FFFFFF" d="M302.052,52.356"/>
	<path fill-rule="evenodd" clip-rule="evenodd" fill="#508444" d="M275.022,45.573c4.228,1.709,8.118,4.209,12.604,5.308
		c8.773,3.737,17.552,7.472,26.327,11.208c7.992,4.024,16.215,7.541,24.48,10.943c4.525,2.094,9.052,4.189,13.577,6.286
		c0.609,0.301,1.224,0.603,1.833,0.903c3.433,1.519,6.872,3.037,10.305,4.556c3.958,2.556,8.286,4.333,12.657,6.028
		c0.406,0.68,1.101,0.703,1.773,0.775c0.056,0.218,0.193,0.34,0.417,0.363c0,0,0.183-0.043,0.183-0.045
		c3.183,2.091,6.626,3.65,10.198,4.927c4.231,2.11,8.323,4.51,12.85,5.99c1.521,1.201,3.265,1.927,5.139,2.376
		c2.657,1.805,5.539,3.156,8.57,4.206c4.245,1.979,8.489,3.96,12.732,5.939c1.35,1.001,2.778,1.809,4.515,1.87
		c2.341,2.144,5.308,3.028,8.186,4.085c4.267,1.928,8.526,3.856,12.789,5.784c1.229,0.618,2.488,1.194,3.689,1.865
		c6.182,3.45,12.994,6.179,15.811,13.557c1.486,4.122,2.855,8.269,2.686,12.741c-0.082,15.277-0.164,30.554-0.249,45.831
		c-1.946,0.877-3.895,1.755-5.841,2.631c-3.973,2.495-7.943,4.991-11.909,7.487c-8.783,3.267-9.325,4.019-9.288,12.853
		c0.004,1.124-0.124,2.263,0.022,3.369c0.431,3.387-1.208,5.33-3.942,7.158c-5.167,3.448-11.166,5.055-16.515,8.056
		c-6.126,2.768-6.221,2.802-8.399-3.371c-0.622-1.753-1.062-1.357-2.31-0.724c-5.012,2.545-9.888,5.748-15.22,7.171
		c-6.765,1.803-7.84,5.852-7.154,11.69c0.201,1.719,0.445,3.553-1.607,4.844c-6.187,3.89-12.288,7.854-19.361,10.064
		c-2.986,0.932-4.223-0.027-4.274-2.941c-0.096-5.359-0.265-10.719-0.162-16.073c0.05-2.912-0.938-3.082-3.159-1.846
		c-3.809,2.116-7.537,4.489-11.567,6.061c-2.718,1.062-3.371,2.527-3.151,5.048c0.121,1.402-0.108,2.84,0.058,4.23
		c0.445,3.621-1.376,5.344-4.589,6.5c-3.693,1.33-7.223,3.102-10.817,4.701c-1.158,0.52-2.587,1.07-2.382,2.605
		c0.525,3.961-2.328,6.119-4.356,8.738c-5.927,4.439-13.436,5.688-19.603,9.701c-1.568,1.02-3.222,1.219-3.827-1.781
		c-0.723-3.584-0.825-7.121-0.518-10.652c0.214-2.529-0.626-2.445-2.254-1.479c-3.73,2.213-7.42,4.496-11.132,6.748
		c-0.813,0.156-1.667,0.213-2.449,0.48c-3.926,1.359-6.917,3.07-5.31,8.313c0.922,2.992,0.771,6.338,0.935,9.533
		c0.08,1.553-0.24,3.273-2.067,3.705c-8.418,1.973-15.229,7.58-23.344,10.225c-0.946-1.213-2.245-0.678-3.433-0.703
		c-1.624,0.025-2.995-0.66-4.326-1.5c-5.217-3.299-10.214-7.066-15.745-9.717c-4.674-2.24-5.018-5.66-4.711-9.797
		c0.832-11.168,0.679-11.465-9.289-16.473c-0.755-0.381-1.497-0.799-2.276-1.123c-9.095-3.773-18.274-7.375-26.794-12.373
		c-1.895-1.115-2.192-0.371-2.206,1.287c-0.009,0.848,0.015,1.697-0.014,2.545c-0.214,6-3.622,7.807-8.895,4.867
		c-6.025-3.359-12.052-6.746-18.686-9.506c0,1.672-0.079,2.91,0.015,4.139c0.293,3.813-2.121,4.646-4.661,3.197
		c-6.012-3.432-12.554-5.637-18.704-8.719c-4.268-2.141-5.814-5.25-5.212-10.041c0.432-3.435-0.675-7.081-0.147-10.485
		c0.884-5.723-1.318-8.124-6.716-9.845c-7.945-2.534-15.63-5.995-22.74-11.659c0,4.66,0.13,8.478-0.052,12.279
		c-0.106,2.212-0.37,4.016-3.809,2.559c-7.4-3.137-14.598-6.658-21.807-10.182c-0.998-0.489-2.729-2.589-3.198,0.767
		c-0.847,6.077-1.102,6.405-6.559,3.83c-8.881-4.189-16.667-6.723-14.6-20.719c0.859-5.812-3.076-7.104-6.834-8.939
		c-1.738-2.781-5.275-2.325-7.526-4.184c-0.092-3.401-0.187-6.802-0.28-10.205c0-4.234,0-8.468,0-12.702c0-4.256,0-8.512,0-12.768
		c0-4.234,0-8.468,0.002-12.701c0.165-4.405-0.129-8.907,2.693-12.75c1.131-1.979,2.26-3.956,3.392-5.935
		c2.862-1.897,5.727-3.796,8.589-5.695c1.299-0.305,2.386-0.973,3.308-1.924c4.422-1.593,8.692-3.516,12.791-5.82
		c4.188-1.203,7.993-3.25,11.79-5.317c0.327-0.171,0.652-0.341,0.979-0.512c4.434-1.601,8.653-3.661,12.754-5.972
		c3.972-1.876,7.944-3.752,11.915-5.628c0.503-0.218,1.006-0.436,1.509-0.655c4.088-1.734,8.204-3.407,11.96-5.819
		c8.748-3.388,16.999-7.839,25.435-11.895c8.239-3.874,16.478-7.747,24.718-11.62c4.679-1.668,9.213-3.668,13.572-6.058
		c2.107-0.572,4.18-1.215,5.863-2.708c2.403-0.553,4.642-1.505,6.754-2.764c3.981-1.716,7.963-3.432,11.944-5.146
		c4.027-1.802,8.052-3.605,12.079-5.407c0,0,0.173,0.122,0.171,0.12c0.237-0.021,0.39-0.146,0.457-0.376
		c0.671-0.065,1.457,0.164,1.819-0.702c4.334-1.43,8.57-3.104,12.614-5.242c2.974-1.11,5.978-2.15,8.919-3.342
		C256.871,40.25,265.971,42.379,275.022,45.573z M91.634,233.236c2.128,1.103,4.229,2.26,6.392,3.291
		c0.977,0.466,2.071,1.536,3.12,0.756c1.154-0.858,0.683-2.308,0.443-3.551c-0.399-2.068-0.339-4.119,0.269-6.14
		c0.793-2.633,1.709-4.008,5.06-2.457c9.684,4.489,19.578,8.522,29.398,12.714c1.91,0.816,2.533,2.303,2.896,4.269
		c1.297,7.009,0.696,14.066,0.784,21.107c0.023,1.915,0.372,2.795,2.564,3.443c6.16,1.824,12.205,4.082,17.868,7.24
		c1.003-7.193,0.92-6.957,7.684-4.547c5.612,1.998,10.762,4.834,15.901,7.707c2.45,1.369,3.333,0.686,3.526-1.801
		c0.067-0.842,0.007-1.695,0.019-2.545c0.064-4.736,0.413-4.762,4.84-3.762c10.222,2.309,19.77,6.436,29.182,10.779
		c13.787,6.363,16.864,9.25,14.556,26.1c-0.241,1.764,0.766,2.305,1.804,2.9c6.275,3.594,12.59,7.121,19.014,10.738
		c0.552-5.172,0.465-10.057,1.884-14.75c0.298,4.338,0.601,8.678,0.892,13.02c0.079,1.207,0.091,2.457,1.896,1.586
		c6.083-2.939,12.434-5.73,17.382-10.225c2.891-2.623,0.563-7.574,1.121-11.436c0.098-0.689,0.492-1.479,0.283-2.045
		c-1.136-3.023,0.79-4.105,3.023-4.977c7.734-3.02,15.029-6.854,21.997-11.377c3.438-2.234,4.271-1.668,4.383,2.633
		c0.101,3.93,0.021,7.863,0.021,12.313c5.7-2.771,10.882-5.535,16.269-7.818c3.267-1.385,4.492-3.365,4.115-6.803
		c-0.188-1.701-0.664-3.961,1.861-4.563c4.287-1.025,8.001-3.469,12.102-4.807c3.25-1.059,4.342-2.739,3.824-5.803
		c-0.768-4.564,1.488-7.185,5.094-9.662c6.39-4.387,13.696-6.899,20.492-11.023c1.219,4.355,0.646,8.571,0.749,12.726
		c0.099,4.196,0.021,8.394,0.021,12.957c4.034-2.244,7.519-4.701,11.376-6.204c5.732-2.231,7.409-6.157,6.442-11.81
		c-0.505-2.961,1.134-4.43,3.521-5.998c6.381-4.193,13.511-6.889,20.126-10.592c5.252-2.942,5.593-2.784,7.861,2.941
		c0.813,2.046,1.745,1.967,3.402,1.058c4.929-2.717,9.899-5.356,14.905-7.934c1.714-0.885,2.517-1.858,2.051-3.968
		c-0.382-1.759-0.093-3.66-0.136-5.498c-0.097-4.261,1.183-7.535,5.41-9.556c3.913-1.872,7.294-4.985,11.311-6.492
		c8.322-3.123,10.193-8.621,9.425-17.1c-0.977-10.75-0.299-21.652-0.283-32.488c0-2.95-0.349-4.358-3.936-2.684
		c-13.248,6.181-26.661,12-39.976,18.037c-29.468,13.357-58.465,27.735-88.121,40.688c-10.919,4.768-21.783,9.638-32.939,13.826
		c2.038-3.499,5.777-4.738,9.099-6.097c12.508-5.12,24.362-11.598,36.616-17.237c21.504-9.896,41.789-22.243,63.372-31.976
		c17.164-7.741,34.461-15.208,51.839-22.455c2.915-1.216,2.58-2.514,1.593-4.284c-1.518-2.716-3.546-4.876-6.535-6.338
		c-19.588-9.595-39.996-17.324-59.771-26.471c-18.529-8.568-36.908-17.453-55.466-25.955c-23.27-10.66-46.66-21.065-69.993-31.598
		c-10.188-4.6-20.397-5.709-30.917-0.903c-12.402,5.664-24.885,11.161-37.388,16.602c-24.755,10.772-49.175,22.267-73.58,33.8
		c-12.572,5.94-25.288,11.576-37.936,17.354c-12.917,5.902-26.334,10.673-38.939,17.285c-2.167,1.138-3.97,2.473-5.298,4.646
		c-2.755,4.509-2.712,5.249,1.994,7.162c15.511,6.313,30.457,13.822,45.472,21.194c3.532,1.733,7.294,3.063,10.646,5.085
		c7.249,4.374,15.012,7.651,22.637,11.233c11.447,5.378,23.376,9.764,34.267,16.261c2.652,1.582,6.07,2.397,7.593,5.606
		l-0.161,0.196c-10.463-4.401-20.994-8.655-31.382-13.234c-30.656-13.515-61.666-26.263-91.523-41.538
		c-2.239-1.146-3.164-0.464-3.118,1.59c0.162,7.235-0.474,14.483,0.34,21.705c-0.169,5.749-0.13,11.515-0.572,17.243
		c-0.342,4.43,0.555,8.065,5.068,9.504c7.019,2.241,8.608,7.252,7.422,13.677c-1.311,7.095,1.802,11.001,8.34,13.09
		c2.058,0.66,3.306,1.251,3.983-1.508c0.528-2.146,2.179-2.412,4.319-1.985C82.151,228.37,86.787,231.039,91.634,233.236z"/>
	<path fill-rule="evenodd" clip-rule="evenodd" fill="#FBFBFA" d="M327.523,65.087"/>
	<path fill-rule="evenodd" clip-rule="evenodd" fill="#E6E6E5" d="M327.523,65.087"/>
	<path fill-rule="evenodd" clip-rule="evenodd" fill="#675A40" d="M257.167,323.412c1.188,0.025,2.486-0.51,3.433,0.703
		c-1.903,2.875-0.119,5.721,0.07,8.582c1.521,27.127,0.433,54.281,0.896,81.418c0.041,9.383,0.085,18.762,0.13,28.146
		c-0.031,7.893-0.06,15.791-0.089,23.684c0.227,0.26,0.452,0.516,0.676,0.771c3.244-0.904,6.654-1.428,9.701-2.773
		c24.509-10.811,49-21.658,73.387-32.73c18.49-8.393,36.824-17.131,55.226-25.715c9.938-4.518,19.878-9.035,29.814-13.557
		c8.604-3.709,17.607-6.531,25.557-11.701c9.553-6.205,15.144-14.443,14.111-26.283c0.022-5.957,0.047-11.912,0.069-17.863
		c0-0.305,0-0.607,0-0.912c0-3.09,0-6.184,0-9.277c0-0.303,0-0.607,0-0.91c0-1.959,0-3.922,0-5.879c0-0.303,0-0.609,0-0.91
		c-0.047-2.564-0.097-5.125-0.144-7.686c0.017-31.635,0.037-63.271,0.056-94.905c0.062-3.972,0.125-7.943,0.192-11.914
		c1.946-0.876,3.895-1.754,5.841-2.631c0.05,0.562,0.138,1.124,0.138,1.684c0.007,51.977-0.017,103.954,0.035,155.932
		c0.002,4.58-1.115,8.814-2.846,12.965c-1.19,2-2.324,4.033-3.572,5.996c-3.72,5.826-10.015,8.041-15.704,11.102
		c-8.657,3.586-17.147,7.535-25.477,11.824c-8.984,3.902-17.915,7.916-26.538,12.582c-4.383,1.594-8.577,3.598-12.572,6.004
		c-1.866,0.447-3.54,1.309-5.121,2.381c-2.221,1-4.448,2.004-6.676,3.002c-4.579,2.178-9.151,4.355-13.726,6.533
		c-2.995,1.033-5.843,2.381-8.506,4.104c-1.098,0.443-2.19,0.887-3.286,1.33c-4.536,2.148-9.069,4.299-13.604,6.449
		c-3.911,1.311-7.733,2.82-11.246,5.029c-0.238-0.037-0.438,0.037-0.592,0.219c-4.483,1.355-8.606,3.541-12.801,5.559
		c-8.465,3.568-16.926,7.139-25.388,10.705c-4.369,1.662-8.703,3.41-12.754,5.783c-2.581,0.781-5.162,1.564-7.74,2.346
		c-0.536,0.092-1.074,0.178-1.611,0.264c-8.527,3.148-16.286-0.215-24.122-2.865c-1.304-0.441-2.565-1.01-3.846-1.516
		c-4.547-1.914-9.094-3.826-13.641-5.738c-8.162-3.482-16.325-6.963-24.486-10.443c-8.647-4.287-17.5-8.104-26.436-11.736
		c-7.907-3.713-15.815-7.424-23.722-11.135c-4.756-2.387-9.401-5.012-14.485-6.693c-0.158-0.174-0.357-0.248-0.592-0.221
		c-3.799-2.441-7.914-4.229-12.096-5.875c-4.058-2.379-8.32-4.316-12.72-5.959l0.044,0.059c-0.292-0.184-0.581-0.367-0.871-0.555
		c-0.295-0.117-0.591-0.234-0.886-0.352c-3.761-2.314-7.735-4.178-11.908-5.627c-3.523-2.193-7.334-3.783-11.194-5.264
		c-1.709-1.313-3.685-2.051-5.724-2.65c-2.063-1.684-4.553-2.461-7.013-3.299c-4.356-2.26-8.696-4.557-13.386-6.084l0.038,0.039
		c-0.421-0.652-1.085-0.768-1.785-0.807c-0.85-0.564-1.699-1.131-2.549-1.699c-3.317-2.09-5.922-4.938-8.414-7.906
		c-0.45-1.799-1.212-3.449-2.404-4.883c-1.741-4.039-2.893-8.215-2.912-12.652c0-4.254,0-8.512,0-12.768c0-4.232,0-8.465,0-12.699
		c0-4.256,0-8.514,0-12.768c0-4.236,0-8.469,0-12.701c0-4.258,0-8.514,0-12.771c0-4.234,0-8.467,0-12.701c0-4.256,0-8.512,0-12.768
		c0-4.232,0-8.467,0-12.701c0-4.257,0-8.511,0-12.767c0-4.235,0-8.466,0-12.702c0-4.257,0-8.514,0-12.769c0-4.234,0-8.468,0-12.701
		c0.094-0.855,0.188-1.709,0.281-2.564c2.251,1.859,5.789,1.403,7.526,4.184c-2.355,3.507-0.809,7.562-1.064,11.226
		c-0.841,12.099-0.444,24.285-0.521,36.435c-0.005,27.696-0.009,55.393-0.015,83.088c-0.039,5.871-0.153,11.742-0.101,17.609
		c0.095,10.811,5.319,18.602,14.404,24.055c2.645,1.58,5.138,3.533,7.957,4.682c23.851,9.711,47.29,20.34,70.495,31.496
		c6.309,3.035,12.758,5.777,19.144,8.652c12.252,6.18,24.823,11.666,37.396,17.141c10.828,4.969,21.563,10.156,32.519,14.822
		c7.324,3.119,14.313,7.139,22.272,8.719c4.407,0.879,6.022,0.006,5.299-4.572c-1.045-6.611-0.174-13.211-0.753-19.789
		c0.006-7.395,0.01-14.787,0.016-22.18c1.878-29.094,0.516-58.213,0.792-87.322C257.084,329.049,257.125,326.23,257.167,323.412z"/>
	<path fill-rule="evenodd" clip-rule="evenodd" fill="#7AC361" d="M48.261,177.286c-0.813-7.222-0.178-14.47-0.34-21.705
		c-0.045-2.054,0.879-2.736,3.118-1.59c29.857,15.275,60.867,28.023,91.523,41.538c10.388,4.579,20.918,8.833,31.383,13.234
		c0.401,0.69,1.016,0.836,1.736,0.651c0.106-0.027,0.176-0.201,0.262-0.306c-0.611-0.18-1.225-0.36-1.838-0.541
		c-1.523-3.209-4.941-4.024-7.593-5.606c-10.891-6.497-22.82-10.883-34.267-16.261c-7.625-3.583-15.388-6.86-22.637-11.233
		c-3.351-2.022-7.113-3.352-10.646-5.085c-15.015-7.372-29.961-14.881-45.472-21.194c-4.706-1.913-4.749-2.652-1.994-7.162
		c1.328-2.173,3.132-3.508,5.298-4.646c12.605-6.612,26.022-11.383,38.939-17.285c12.648-5.777,25.364-11.414,37.936-17.354
		c24.404-11.533,48.825-23.027,73.58-33.8c12.503-5.441,24.986-10.938,37.388-16.602c10.52-4.806,20.729-3.696,30.917,0.903
		c23.333,10.533,46.724,20.938,69.993,31.598c18.558,8.501,36.937,17.387,55.466,25.955c19.774,9.147,40.183,16.876,59.771,26.471
		c2.989,1.462,5.018,3.623,6.535,6.338c0.987,1.77,1.322,3.067-1.593,4.284c-17.378,7.247-34.675,14.714-51.839,22.455
		c-21.583,9.733-41.868,22.08-63.372,31.976c-12.254,5.639-24.108,12.117-36.616,17.237c-3.321,1.358-7.061,2.598-9.099,6.097
		c-1.311-0.063-2.466,0.406-3.637,0.947c-10.341,4.777-20.771,9.37-31.012,14.35c-4.97,2.417-9.508,5.692-10.25,11.866
		c-0.45,3.75-1.133,7.458-1.09,11.298c0.149,13.537,0.036,27.074,0.024,40.615c-1.419,4.693-1.332,9.578-1.884,14.75
		c-6.424-3.617-12.738-7.145-19.014-10.738c-1.038-0.596-2.045-1.137-1.804-2.9c2.308-16.85-0.769-19.736-14.556-26.1
		c-9.412-4.344-18.96-8.471-29.182-10.779c-4.427-1-4.776-0.975-4.84,3.762c-0.012,0.85,0.048,1.703-0.019,2.545
		c-0.193,2.486-1.076,3.17-3.526,1.801c-5.14-2.873-10.289-5.709-15.901-7.707c-6.763-2.41-6.681-2.646-7.684,4.547
		c-5.663-3.158-11.708-5.416-17.868-7.24c-2.192-0.648-2.541-1.528-2.564-3.443c-0.088-7.041,0.514-14.098-0.784-21.107
		c-0.363-1.965-0.986-3.453-2.896-4.269c-9.821-4.192-19.714-8.226-29.398-12.714c-3.351-1.551-4.266-0.176-5.06,2.457
		c-0.608,2.021-0.668,4.071-0.269,6.14c0.24,1.243,0.71,2.692-0.443,3.551c-1.049,0.78-2.144-0.29-3.12-0.756
		c-2.162-1.031-4.264-2.188-6.392-3.29c-0.002-8.729-0.278-17.473,0.102-26.188c0.216-4.961-1.735-8.017-5.882-10.141
		c-1.122-0.576-2.193-1.25-3.282-1.891C71.463,188.474,60.293,182.043,48.261,177.286z"/>
	<path fill-rule="evenodd" clip-rule="evenodd" fill="#86C770" d="M258.837,304.729c0.012-13.541,0.125-27.078-0.024-40.615
		c-0.043-3.841,0.64-7.548,1.09-11.298c0.742-6.174,5.28-9.449,10.25-11.866c10.241-4.979,20.671-9.572,31.012-14.35
		c1.171-0.541,2.326-1.009,3.637-0.947c11.156-4.188,22.021-9.058,32.939-13.826c29.656-12.953,58.653-27.331,88.121-40.688
		c13.314-6.036,26.728-11.855,39.976-18.037c3.587-1.674,3.936-0.267,3.936,2.684c-0.016,10.836-0.693,21.738,0.283,32.488
		c0.769,8.479-1.103,13.977-9.425,17.1c-4.017,1.507-7.397,4.62-11.311,6.492c-4.228,2.021-5.507,5.294-5.41,9.556
		c0.043,1.838-0.246,3.739,0.136,5.498c0.466,2.11-0.337,3.083-2.051,3.968c-5.006,2.578-9.977,5.217-14.905,7.934
		c-1.657,0.91-2.589,0.989-3.402-1.058c-2.269-5.726-2.609-5.883-7.861-2.941c-6.615,3.703-13.745,6.398-20.126,10.592
		c-2.388,1.568-4.026,3.037-3.521,5.998c0.967,5.653-0.71,9.579-6.442,11.81c-3.857,1.503-7.342,3.96-11.376,6.204
		c0-4.563,0.078-8.761-0.021-12.957c-0.103-4.155,0.47-8.371-0.749-12.726c-6.796,4.124-14.103,6.636-20.492,11.023
		c-3.605,2.477-5.861,5.097-5.094,9.662c0.518,3.063-0.574,4.744-3.824,5.803c-4.101,1.338-7.814,3.781-12.102,4.807
		c-2.525,0.602-2.049,2.861-1.861,4.563c0.377,3.438-0.849,5.418-4.115,6.803c-5.387,2.283-10.568,5.047-16.269,7.818
		c0-4.449,0.08-8.383-0.021-12.313c-0.112-4.301-0.944-4.867-4.383-2.633c-6.968,4.523-14.263,8.357-21.997,11.377
		c-2.233,0.871-4.159,1.953-3.023,4.977c0.209,0.566-0.186,1.355-0.283,2.045c-0.559,3.861,1.77,8.813-1.121,11.436
		c-4.948,4.494-11.299,7.285-17.382,10.225c-1.805,0.871-1.816-0.379-1.896-1.586C259.438,313.406,259.135,309.066,258.837,304.729z
		"/>
	<path fill-rule="evenodd" clip-rule="evenodd" fill="#8C7C5C" d="M47.619,255.466c0.078-12.15-0.319-24.336,0.521-36.435
		c0.255-3.665-1.292-7.719,1.064-11.226c3.758,1.835,7.693,3.127,6.834,8.939c-2.067,13.996,5.718,16.53,14.6,20.719
		c5.457,2.575,5.712,2.247,6.559-3.83c0.469-3.356,2.2-1.256,3.198-0.767c7.208,3.524,14.406,7.045,21.807,10.182
		c3.438,1.457,3.702-0.347,3.809-2.559c0.182-3.801,0.052-7.619,0.052-12.279c7.11,5.665,14.795,9.125,22.74,11.659
		c5.398,1.721,7.601,4.122,6.716,9.845c-0.528,3.404,0.579,7.05,0.147,10.485c-0.603,4.791,0.944,7.9,5.212,10.041
		c6.15,3.082,12.691,5.287,18.704,8.719c2.54,1.449,4.954,0.615,4.661-3.197c-0.094-1.229-0.015-2.467-0.015-4.139
		c6.634,2.76,12.661,6.146,18.686,9.506c5.273,2.939,8.68,1.133,8.895-4.867c0.029-0.848,0.005-1.697,0.014-2.545
		c0.013-1.658,0.311-2.402,2.206-1.287c8.52,4.998,17.7,8.6,26.794,12.373c0.779,0.324,1.521,0.742,2.276,1.123
		c9.967,5.008,10.12,5.305,9.289,16.473c-0.307,4.137,0.037,7.557,4.711,9.797c5.53,2.65,10.528,6.418,15.745,9.717
		c1.331,0.84,2.702,1.525,4.326,1.5c-0.042,2.818-0.083,5.637-0.123,8.455c-9.375-2.545-17.505-7.654-25.734-12.551
		c-3.565-2.123-5.19-5.34-5.146-9.482c0.041-3.891-0.023-7.781-0.03-11.676c-0.005-2.068-0.358-4.342-2.432-4.973
		c-6.888-2.104-13.313-5.371-20.109-7.678c-2.953-1.002-4.467-0.041-5.016,3.1c-0.841,4.828-3.305,5.779-7.751,3.791
		c-5.523-2.471-11.225-4.533-16.8-6.887c-1.504-0.635-3.337-0.932-3.031,0.943c0.369,2.266-4.325,4.457,0.077,6.619
		c5.063,2.49,9.99,5.258,15.004,7.852c2.156,1.113,3.256,2.633,3.738,5.172c0.603,3.16-0.226,6.133-0.233,9.191
		c-0.025,14.178,0.758,28.346,0.14,42.531c-0.151,3.441-0.758,4.467-4.05,2.797c-13.811-7.002-27.844-13.57-41.359-21.146
		c-1.676-0.939-2.916-2.186-2.992-4.271c-0.105-2.781-0.439-5.57-0.341-8.346c0.449-12.621-0.538-25.324,0.356-37.83
		c0.563-7.889-2.296-10.859-8.48-13.01c-2.982-1.033-4.008-3.152-3.911-6.23c0.15-4.805,0.104-9.618,0.015-14.424
		c-0.056-2.995-0.317-6.19-3.313-7.743c-2.47-1.282-4.801-2.859-7.559-3.664c-4.615-1.348-4.664-1.416-4.436,3.344
		c0.211,4.465-1.33,5.701-5.802,5.281c-4.769-0.447-8.987-2.266-13.069-4.533c-2.341-1.302-3.262-0.857-3.18,1.931
		c0.126,4.38,0.38,8.803-0.059,13.143c-0.504,4.98,1.518,7.545,6.105,8.979c3.088,0.967,5.668,3.1,8.436,4.793
		c2.4,1.473,3.555,3.258,3.864,6.057c0.839,7.604,0.216,15.182-0.098,22.764c-0.096,2.33-1.683,2.773-3.607,1.957
		c-6.215-2.633-12.459-5.205-18.579-8.047c-3.365-1.563-6.071-3.771-6.04-8.174c0.035-4.91-0.472-9.82-0.546-14.732
		c-0.038-2.49-0.865-4.305-3.044-5.531c-2.915-1.641-5.734-3.465-8.715-4.972C62.113,262.571,55.237,258.264,47.619,255.466z"/>
	<path fill-rule="evenodd" clip-rule="evenodd" fill="#9A8760" d="M330.168,289.322c2.028-2.619,4.882-4.777,4.356-8.738
		c-0.205-1.535,1.224-2.086,2.382-2.605c3.595-1.6,7.124-3.371,10.817-4.701c3.213-1.156,5.034-2.879,4.589-6.5
		c-0.166-1.391,0.063-2.828-0.058-4.23c-0.22-2.521,0.434-3.986,3.151-5.048c4.03-1.572,7.759-3.945,11.567-6.061
		c2.222-1.235,3.209-1.066,3.159,1.846c-0.103,5.354,0.066,10.714,0.162,16.073c0.052,2.914,1.288,3.873,4.274,2.941
		c7.073-2.211,13.175-6.175,19.361-10.064c2.053-1.291,1.809-3.125,1.607-4.844c-0.686-5.838,0.39-9.887,7.154-11.69
		c5.332-1.424,10.208-4.626,15.22-7.171c1.248-0.634,1.688-1.03,2.31,0.724c2.179,6.172,2.273,6.139,8.399,3.371
		c1.511,1.581-0.216,1.826-1.021,2.262c-2.961,1.604-5.968,3.138-8.98,4.644c-1.164,0.583-2.449,1.162-2.319,2.641
		c0.131,1.42,1.554,1.274,2.605,1.631c3.736,1.274,6.972,0.863,10.316-1.534c4.917-3.525,10.647-5.742,16.274-7.732
		c7.869-2.785,11.009-6.93,11.037-15.306c0.015-3.748-1.626-8.865,4.398-10.329c0,5.513,0.096,11.029-0.035,16.538
		c-0.093,3.969-1.248,7.721-5.01,9.648c-2.396,1.225-2.634,2.866-2.626,5.122c0.063,12.723,0.076,25.445-0.008,38.168
		c-0.019,2.51-0.596,5.012-0.758,7.527c-0.113,1.779-1.248,2.771-2.412,3.797c-0.555,0.486-1.209,0.779-1.942,0.432
		c-0.809-0.389-0.739-1.127-0.534-1.816c1.21-4.023,0.497-8.143,0.545-12.211c0.075-6.172-3.689-9.086-9.671-7.486
		c-9.821,2.627-18.23,8.066-26.289,13.982c-4.098,3.01-4.71,11.811-1.564,15.385c0.021,5.131,0.041,10.264,0.06,15.395
		c-5.258,2.738-10.549,5.354-16.302,6.975c-7.152,2.018-9.846,0.182-9.853-7.098c-0.01-15.826-0.002-31.65-0.002-47.477
		c2.743-1.377,5.562-2.619,8.206-4.16c4.367-2.549,9.619-4.551,8.474-11.641c-4.729,2.303-8.697,5.359-12.688,8.35
		c-2.412,1.811-4.026,4.238-3.991,7.453c-3.589,1.584-6.854,3.857-10.83,4.633c-4.658,0.908-8.596-1.641-9.614-6.283
		c-0.587-2.639-0.901-5.254-0.797-7.941c0.037-1,0.048-2.173-1.06-2.531c-0.981-0.319-1.882,0.373-2.638,1.033
		c-2.14,1.873-2.265,4.359-2.254,6.973c0.026,6.314-1.031,7.783-6.93,9.992c-2.501,0.936-5.016,1.828-7.53,2.736
		c-2.475,0.9-4.453,1.91-4.324,5.27c0.189,4.949-2.513,7.75-7.519,8.191C329.92,295.096,331.607,292.049,330.168,289.322z
		 M401.82,259.37c4.47-2.518,7.962-4.504,11.477-6.454c0.937-0.522,1.659-1.034,1.08-2.274c-0.505-1.075-1.253-2.326-2.421-1.849
		c-3.094,1.262-6.178,2.656-9.003,4.417C400.941,254.468,402.72,256.765,401.82,259.37z"/>
	<path fill-rule="evenodd" clip-rule="evenodd" fill="#73C15F" d="M48.261,177.286c12.033,4.757,23.202,11.188,34.311,17.731
		c1.088,0.641,2.16,1.315,3.282,1.891c4.147,2.125,6.098,5.18,5.882,10.141c-0.379,8.714-0.104,17.458-0.102,26.188
		c-4.847-2.198-9.482-4.867-14.812-5.93c-2.141-0.427-3.792-0.161-4.319,1.985c-0.677,2.759-1.925,2.168-3.983,1.508
		c-6.538-2.088-9.651-5.995-8.34-13.09c1.186-6.425-0.404-11.436-7.422-13.677c-4.513-1.439-5.41-5.075-5.068-9.504
		C48.131,188.8,48.092,183.035,48.261,177.286z"/>
	<path fill-rule="evenodd" clip-rule="evenodd" fill="#9A8760" d="M260.672,332.697c-0.191-2.861-1.976-5.707-0.072-8.582
		c8.114-2.645,14.926-8.252,23.344-10.225c1.827-0.432,2.147-2.152,2.067-3.705c-0.164-3.195-0.013-6.541-0.935-9.533
		c-1.607-5.242,1.384-6.953,5.31-8.313c0.782-0.268,1.637-0.324,2.449-0.479c-2.611,2.135-4.063,4.738-4.312,8.248
		c-0.423,6.098-0.218,12.154,0.212,18.271c3.966-1.355,5.543-3.916,4.828-8.422c-0.484-3.066-0.669-6.113-0.766-9.203
		c-0.125-3.84,3.16-4.57,5.338-4.795c2.879-0.303,0.976,2.703,1.45,4.17c0.252,0.77-0.027,1.688,0.069,2.521
		c0.475,4.215,3.965,7.129,7.537,5.666c6.206-2.545,12.866-4.02,18.634-7.572c1.418-0.873,2.765-1.268,4.342-1.207
		c0.009,4.387-0.086,8.777,0.058,13.156c0.104,3.252-1.047,5.572-3.689,7.576c-4.194,3.186-8.871,5.463-13.475,7.873
		c-6.093,3.191-12.261,6.262-18.533,9.088c-3.975,1.797-5.877,0.387-5.925-3.883c-0.043-3.68,0-7.357-0.021-11.037
		c-0.008-2.213-0.858-2.805-2.891-1.609c-3.399,2.002-6.763,4.131-10.348,5.758C270.512,328.66,266.28,332.322,260.672,332.697z"/>
	<path fill-rule="evenodd" clip-rule="evenodd" fill="#8C7C5C" d="M330.168,299.539c-1.577-0.061-2.924,0.334-4.342,1.207
		c-5.768,3.553-12.428,5.027-18.634,7.572c-3.572,1.463-7.063-1.451-7.537-5.666c-0.097-0.834,0.183-1.752-0.069-2.521
		c-0.475-1.467,1.429-4.473-1.45-4.17c-2.178,0.225-5.463,0.955-5.338,4.795c0.097,3.09,0.281,6.137,0.766,9.203
		c0.715,4.506-0.862,7.066-4.828,8.422c-0.43-6.117-0.635-12.174-0.212-18.271c0.249-3.51,1.7-6.113,4.312-8.248
		c3.712-2.254,7.401-4.537,11.132-6.75c1.628-0.967,2.468-1.051,2.254,1.479c-0.308,3.531-0.205,7.068,0.518,10.652
		c0.605,3,2.259,2.801,3.827,1.781c6.167-4.014,13.676-5.262,19.603-9.701c1.439,2.727-0.248,5.773,0.868,8.531
		C330.378,298.225,330.213,298.854,330.168,299.539z"/>
	<path fill-rule="evenodd" clip-rule="evenodd" fill="#8C7C5C" d="M460.933,218.899c-6.024,1.463-4.384,6.581-4.398,10.329
		c-0.028,8.375-3.168,12.521-11.037,15.306c-5.627,1.991-11.357,4.208-16.274,7.732c-3.345,2.397-6.58,2.808-10.316,1.534
		c-1.052-0.357-2.475-0.21-2.605-1.631c-0.13-1.479,1.155-2.058,2.319-2.641c3.013-1.506,6.02-3.04,8.98-4.644
		c0.805-0.436,2.531-0.681,1.021-2.262c5.349-3.001,11.348-4.608,16.515-8.056c2.734-1.828,4.373-3.771,3.942-7.158
		c-0.146-1.106-0.019-2.245-0.022-3.369c-0.037-8.834,0.505-9.586,9.288-12.853c2.344,1.74,2.843,4.178,2.604,6.895
		C460.957,218.355,460.948,218.627,460.933,218.899z"/>
	<path fill-rule="evenodd" clip-rule="evenodd" fill="#FBFBFA" d="M467.878,129.035"/>
	<path fill-rule="evenodd" clip-rule="evenodd" fill="#FFFFFF" d="M353.844,80.221c-0.609-0.301-1.224-0.603-1.833-0.905"/>
	<path fill-rule="evenodd" clip-rule="evenodd" fill="#E5E5E4" d="M352.011,79.315c-4.525-2.095-9.052-4.19-13.577-6.284"/>
	<path fill-rule="evenodd" clip-rule="evenodd" fill="#FBFBFA" d="M428.668,115.336c-4.243-1.979-8.487-3.959-12.732-5.939"/>
	<path fill-rule="evenodd" clip-rule="evenodd" fill="#8E7D5D" d="M460.948,218.082c0.238-2.717-0.261-5.155-2.604-6.895
		c3.966-2.496,7.937-4.992,11.909-7.487c-0.067,3.971-0.131,7.942-0.192,11.913C466.714,215.298,464.205,218.07,460.948,218.082z"/>
	<path fill-rule="evenodd" clip-rule="evenodd" fill="#E5E5E4" d="M364.148,84.776c-3.433-1.519-6.872-3.037-10.305-4.556"/>
	<path fill-rule="evenodd" clip-rule="evenodd" fill="#9D8A62" d="M47.619,255.466c7.619,2.797,14.494,7.105,21.697,10.744
		c2.981,1.507,5.8,3.331,8.715,4.972c2.179,1.227,3.006,3.041,3.044,5.531c0.075,4.912,0.582,9.822,0.546,14.732
		c-0.032,4.402,2.674,6.611,6.04,8.174c6.12,2.842,12.364,5.414,18.579,8.047c1.924,0.816,3.511,0.373,3.607-1.957
		c0.314-7.582,0.937-15.16,0.098-22.764c-0.309-2.799-1.464-4.584-3.864-6.057c-2.767-1.693-5.348-3.826-8.436-4.793
		c-4.587-1.434-6.609-3.998-6.105-8.979c0.439-4.34,0.185-8.763,0.059-13.143c-0.082-2.788,0.839-3.232,3.18-1.931
		c4.082,2.267,8.3,4.086,13.069,4.533c4.473,0.42,6.014-0.816,5.802-5.281c-0.228-4.76-0.179-4.692,4.436-3.344
		c2.758,0.805,5.089,2.382,7.559,3.664c2.996,1.553,3.258,4.749,3.313,7.743c0.089,4.806,0.135,9.62-0.015,14.424
		c-0.097,3.078,0.929,5.197,3.911,6.23c6.185,2.15,9.043,5.121,8.48,13.01c-0.894,12.506,0.093,25.209-0.356,37.83
		c-0.098,2.775,0.236,5.564,0.341,8.346c0.076,2.086,1.316,3.332,2.992,4.271c13.515,7.576,27.548,14.145,41.359,21.146
		c3.292,1.67,3.898,0.645,4.05-2.797c0.618-14.186-0.165-28.354-0.14-42.531c0.007-3.059,0.835-6.031,0.233-9.191
		c-0.482-2.539-1.582-4.059-3.738-5.172c-5.014-2.594-9.941-5.361-15.004-7.852c-4.402-2.162,0.292-4.354-0.077-6.619
		c-0.306-1.875,1.527-1.578,3.031-0.943c5.575,2.354,11.277,4.416,16.8,6.887c4.447,1.988,6.91,1.037,7.751-3.791
		c0.548-3.141,2.063-4.102,5.016-3.1c6.796,2.307,13.222,5.574,20.109,7.678c2.074,0.631,2.427,2.904,2.432,4.973
		c0.007,3.895,0.071,7.785,0.03,11.676c-0.045,4.143,1.581,7.359,5.146,9.482c8.229,4.896,16.359,10.006,25.734,12.551
		c-0.276,29.109,1.086,58.229-0.792,87.322c-0.138-5.006-4.067-6.316-7.677-8.115c-2.971-1.482-4.2-0.842-4.141,2.471
		c0.116,6.332,0.35,12.67,0.188,18.994c-0.066,2.68,1.147,4.43,3.079,5.488c2.663,1.467,5.282,3.293,8.535,3.342
		c0.579,6.578-0.292,13.178,0.753,19.789c0.724,4.578-0.892,5.451-5.299,4.572c-7.959-1.58-14.949-5.6-22.272-8.719
		c-10.955-4.666-21.69-9.854-32.519-14.822c0.002-4.357-0.304-8.742,0.077-13.066c0.6-6.809-2.333-10.977-8.227-14.121
		c-3.944-2.102-8.352-3.768-11.32-7.459c1.788-0.021,2.736-0.832,2.555-2.709c1.253-0.105,1.612-0.896,1.612-2.025
		c-0.006-7.262-0.05-14.521,0.046-21.781c0.03-2.141-1.031-3.645-2.617-4.5c-6.649-3.576-13.24-7.297-20.387-9.85
		c-2.991-0.529-4.455,0.4-4.114,3.746c0.749,7.369,0.743,14.775,0.871,22.176c0.055,3.217,1.806,5.826,5,7.133
		c-1.559,8.393-0.771,16.871-0.891,25.316c-6.386-2.875-12.835-5.617-19.144-8.652c-23.206-11.156-46.644-21.785-70.495-31.496
		c-2.818-1.148-5.312-3.102-7.955-4.682c0.031-8.797-0.638-17.594-0.631-26.357c0.004-8.43-5.277-11.715-13.674-15.307
		C47.609,310.859,47.614,283.162,47.619,255.466z M202.302,371.438c0.18,0,0.359,0,0.541,0c0,2.402,0.104,4.811-0.027,7.209
		c-0.156,2.836,1.111,5.07,3.249,6.488c7.175,4.748,14.71,8.898,22.667,12.195c2.692,1.117,4.568-0.229,4.616-3.043
		c0.15-8.564,0.096-17.135,0.023-25.703c-0.019-2.25-1.101-4.125-3.154-5.17c-7.276-3.693-14.458-7.588-22.176-10.355
		c-3.644-1.309-5.693-0.045-5.728,3.863C202.268,361.762,202.302,366.6,202.302,371.438z M119.648,357.215
		c-0.737-2.477,1.705-6.359-1.406-8.553c-4.688-3.301-9.661-6.322-15.204-8.086c-2.393-0.76-3.532,0.049-3.454,2.918
		c0.139,5.129-0.06,10.273-0.364,15.4c-0.19,3.195,0.636,5.518,3.816,6.668c1.447,0.523,2.5,1.723,4.089,2.125
		c4.376,1.107,6.566,3.73,5.794,8.559c-0.342,2.137-0.576,4.555,1.782,6.105c3.058,2.012,6.333,3.604,9.749,4.838
		c2.224,0.803,3.86,0.23,3.71-2.691c-0.116-2.25-0.147-4.518,0.005-6.766c0.269-3.945-1.03-6.82-4.829-8.475
		c-2.719-1.18-4.043-3.314-3.721-6.416C119.792,361.166,119.648,359.459,119.648,357.215z"/>
	<path fill-rule="evenodd" clip-rule="evenodd" fill="#A8946B" d="M460.948,218.082c3.257-0.012,5.766-2.784,9.112-2.469
		c-0.019,31.636-0.039,63.271-0.056,94.906c-6.943,3.127-12.901,7.732-18.701,12.564c-0.851,0.709-1.052,1.926-1.505,2.941
		c-1.59,3.545,0.114,6.945,0.101,10.404c-0.033,7.283-0.154,14.57,0.06,21.85c0.125,4.199,1.548,4.762,5.446,3.086
		c5.051-2.168,9.321-5.857,14.674-7.408c1.032,11.84-4.559,20.078-14.111,26.283c-7.949,5.17-16.952,7.992-25.557,11.703
		c-0.01-2.68-0.062-5.365-0.028-8.047c0.043-3.359-1.466-4.338-4.552-3.133c-4.967,1.938-9.599,4.67-14.497,6.66
		c-8.432,3.412-12.881,8.641-10.737,18.074c-18.401,8.584-36.735,17.322-55.226,25.715c-24.387,11.072-48.878,21.92-73.387,32.73
		c-3.047,1.346-6.457,1.869-9.701,2.777c-0.224-0.258-0.449-0.516-0.676-0.775c0.029-7.893,0.058-15.791,0.083-23.684
		c4.379-0.066,7.444-3.094,11.062-4.889c2.686-1.328,3.825-3.471,3.989-6.43c0.318-5.588-0.45-11.189,0.406-16.779
		c0.308-2.01,0.48-4.572-1.55-5.656c-1.928-1.027-4.022,0.094-5.938,1.223c-2.639,1.559-4.942,3.771-8.094,4.385
		c-0.464-27.137,0.624-54.291-0.896-81.418c5.61-0.375,9.842-4.037,14.675-6.236c3.585-1.627,6.948-3.756,10.348-5.758
		c2.032-1.195,2.883-0.604,2.891,1.609c0.021,3.68-0.022,7.357,0.021,11.037c0.048,4.27,1.95,5.68,5.925,3.883
		c6.272-2.826,12.44-5.896,18.533-9.088c4.604-2.41,9.28-4.688,13.475-7.873c2.643-2.004,3.794-4.324,3.689-7.576
		c-0.144-4.379-0.049-8.77-0.058-13.156c0.045-0.686,0.21-1.314,0.868-1.686c5.006-0.441,7.708-3.242,7.519-8.191
		c-0.129-3.359,1.85-4.369,4.324-5.27c2.515-0.908,5.029-1.801,7.53-2.736c5.898-2.209,6.956-3.678,6.93-9.992
		c-0.011-2.613,0.114-5.1,2.254-6.973c0.756-0.66,1.656-1.353,2.638-1.033c1.107,0.358,1.097,1.531,1.06,2.531
		c-0.104,2.688,0.21,5.303,0.797,7.941c1.019,4.643,4.956,7.191,9.614,6.283c3.977-0.775,7.241-3.049,10.83-4.633v-0.002
		c0,15.826-0.008,31.65,0.002,47.477c0.007,7.279,2.7,9.115,9.853,7.098c5.753-1.621,11.044-4.236,16.306-6.975
		c0.037,1.826,0.23,3.668,0.074,5.475c-0.311,3.592,0.412,5.332,4.64,4.02c2.144-0.666,4.317-1.195,6.258-2.295
		c6.552-3.715,14.101-5.561,19.919-10.633c1.901-0.441,2.244-1.867,2.228-3.521c-0.084-9.082-0.158-18.162-0.25-27.242
		c-0.052-4.926-2.015-6.656-6.474-4.666c-7.679,3.438-15.646,6.277-22.953,10.533c-3.825,2.225-4.351,5.625-3.438,9.545
		c-0.022,1.133-0.047,2.26-0.071,3.391c-3.142-3.574-2.529-12.375,1.568-15.385c8.059-5.916,16.468-11.355,26.289-13.982
		c5.981-1.6,9.746,1.314,9.671,7.486c-0.048,4.068,0.665,8.188-0.545,12.211c-0.205,0.689-0.274,1.428,0.534,1.816
		c0.733,0.348,1.388,0.055,1.942-0.432c1.164-1.025,2.299-2.018,2.412-3.797c0.162-2.516,0.739-5.018,0.758-7.527
		c0.084-12.723,0.071-25.445,0.008-38.168c-0.008-2.256,0.23-3.897,2.626-5.122c3.762-1.927,4.917-5.679,5.01-9.648
		c0.131-5.508,0.035-11.025,0.035-16.538C460.948,218.627,460.957,218.355,460.948,218.082z M378.588,362.201
		c0.339,0.936,0.68,1.877,1.019,2.814c1.229,4.152,0.157,8.434,0.704,12.625c1.453,2.908,4.904,3.781,8.398,1.664
		c4.538-2.754,8.81-5.945,13.329-8.74c0.899-0.555,1.164-0.975,1.168-1.857c0.041-5.611,0.354-11.24,0.028-16.832
		c-0.157-2.709-1.317-4.887-5.235-3.252c-7.385,3.082-14.112,6.918-19.278,13.158c0.107-0.965,0.354-1.939,0.292-2.893
		c-0.191-2.918,2.983-4.4,2.971-7.227c-0.022-4.371,0.004-8.742-0.008-13.115c-0.009-2.875-1.177-3.682-4.034-2.701
		c-5.259,1.805-9.638,5.227-14.6,7.555c-1.175,0.551-1.538,1.828-1.821,3.16c-1.078,5.061-0.226,10.162-0.069,15.182
		c0.233,7.486,1.159,7.637,8.247,4.25C372.599,364.604,375.26,362.594,378.588,362.201z M314.048,426.48
		c0,3.082-0.119,6.162,0.028,9.234c0.205,4.309,1.248,4.973,5.139,3.012c9.804-4.941,19.529-10.037,29.295-15.057
		c2.631-1.352,3.942-3.287,3.799-6.422c-0.398-8.852,0.123-17.703-0.633-26.584c-0.657-7.734-1.01-8.496-7.709-4.982
		c-8.105,4.256-16.146,8.668-24.021,13.336c-3.421,2.027-5.842,4.895-6.047,9.521C313.633,414.535,314.631,420.512,314.048,426.48z
		 M300.374,381.625c-0.737-2.004,1.901-5.74-1.39-7.451c-2.963-1.539-4.758,2.164-7.25,3.115c-5.913,2.254-8.081,6.621-8.061,12.723
		c0.035,8.949,0.896,9.59,8.855,5.619c1.14-0.566,2.224-1.277,3.418-1.676c3.233-1.078,3.907-3.842,4.377-6.633
		C300.598,385.701,300.374,383.992,300.374,381.625z"/>
	<path fill-rule="evenodd" clip-rule="evenodd" fill="#8E7D5D" d="M159.503,425.049c0.12-8.445-0.667-16.924,0.891-25.316
		c6.068,1.756,11.531,4.824,17.034,7.811c2.968,3.691,7.376,5.357,11.32,7.459c5.895,3.145,8.827,7.313,8.227,14.121
		c-0.38,4.324-0.075,8.709-0.077,13.066C184.326,436.715,171.756,431.229,159.503,425.049z"/>
	<path fill-rule="evenodd" clip-rule="evenodd" fill="#9A8760" d="M470.079,353.957c-5.353,1.551-9.623,5.24-14.674,7.408
		c-3.898,1.676-5.321,1.113-5.446-3.086c-0.214-7.279-0.093-14.566-0.06-21.85c0.014-3.459-1.69-6.859-0.101-10.404
		c0.453-1.016,0.654-2.232,1.505-2.941c5.8-4.832,11.758-9.438,18.701-12.564c0.047,2.561,0.097,5.121,0.144,7.686
		c-0.337,0.148-0.678,0.301-1.019,0.451c0.341,0.152,0.682,0.305,1.019,0.459c0,1.957,0,3.92,0,5.879
		c-0.337,0.15-0.678,0.303-1.019,0.453c0.341,0.152,0.682,0.305,1.019,0.457c0,3.094,0,6.188,0,9.277
		c-0.337,0.152-0.678,0.303-1.019,0.455c0.341,0.152,0.682,0.303,1.019,0.457C470.126,342.045,470.102,348,470.079,353.957z"/>
	<path fill-rule="evenodd" clip-rule="evenodd" fill="#9A8760" d="M261.566,414.115c3.151-0.613,5.455-2.826,8.094-4.385
		c1.915-1.129,4.01-2.25,5.938-1.223c2.03,1.084,1.857,3.646,1.55,5.656c-0.856,5.59-0.088,11.191-0.406,16.779
		c-0.164,2.959-1.304,5.102-3.989,6.43c-3.617,1.795-6.683,4.822-11.062,4.889C261.651,432.877,261.607,423.498,261.566,414.115z"/>
	<path fill-rule="evenodd" clip-rule="evenodd" fill="#8C7C5C" d="M47.604,338.555c8.397,3.592,13.678,6.877,13.674,15.307
		c-0.007,8.764,0.662,17.561,0.631,26.357c-9.087-5.453-14.311-13.244-14.406-24.055C47.451,350.297,47.565,344.426,47.604,338.555z
		"/>
	<path fill-rule="evenodd" clip-rule="evenodd" fill="#9A8760" d="M400.597,405.498c-2.144-9.434,2.306-14.662,10.737-18.074
		c4.898-1.99,9.53-4.723,14.497-6.66c3.086-1.205,4.595-0.227,4.552,3.133c-0.033,2.682,0.019,5.367,0.028,8.047
		C420.475,396.463,410.535,400.98,400.597,405.498z"/>
	<path fill-rule="evenodd" clip-rule="evenodd" fill="#8E7D5D" d="M256.236,441.369c-3.253-0.049-5.872-1.875-8.535-3.342
		c-1.932-1.059-3.145-2.809-3.079-5.488c0.161-6.324-0.073-12.662-0.188-18.994c-0.06-3.313,1.17-3.953,4.141-2.471
		c3.609,1.799,7.539,3.109,7.677,8.115C256.246,426.582,256.242,433.975,256.236,441.369z"/>
	<path fill-rule="evenodd" clip-rule="evenodd" fill="#8E7D5D" d="M470.148,325.904c-0.337-0.152-0.678-0.305-1.019-0.457
		c0.341-0.15,0.682-0.303,1.019-0.453C470.148,325.297,470.148,325.602,470.148,325.904z"/>
	<path fill-rule="evenodd" clip-rule="evenodd" fill="#8E7D5D" d="M470.148,336.094c-0.337-0.154-0.678-0.305-1.019-0.457
		c0.341-0.152,0.682-0.303,1.019-0.455C470.148,335.486,470.148,335.789,470.148,336.094z"/>
	<path fill-rule="evenodd" clip-rule="evenodd" fill="#8E7D5D" d="M470.148,319.115c-0.337-0.154-0.678-0.307-1.019-0.459
		c0.341-0.15,0.682-0.303,1.019-0.451C470.148,318.506,470.148,318.813,470.148,319.115z"/>
	<path fill-rule="evenodd" clip-rule="evenodd" fill="#FBFBFA" d="M110.405,410.738c-0.292-0.184-0.581-0.367-0.872-0.555
		C109.824,410.371,110.113,410.555,110.405,410.738z"/>
	<path fill-rule="evenodd" clip-rule="evenodd" fill="#9A8760" d="M261.607,465.945c0.227,0.26,0.452,0.518,0.676,0.775
		C262.06,466.461,261.834,466.205,261.607,465.945z"/>
	<path fill-rule="evenodd" clip-rule="evenodd" fill="#508444" d="M174.104,208.566c0.613,0.181,1.227,0.361,1.838,0.541
		c-0.086,0.105-0.155,0.279-0.262,0.306c-0.72,0.186-1.335,0.039-1.736-0.651C173.944,208.763,174.104,208.566,174.104,208.566z"/>
	<path fill-rule="evenodd" clip-rule="evenodd" fill="#6E6948" d="M441.582,319.945c-5.818,5.072-13.367,6.918-19.919,10.633
		c-1.94,1.1-4.114,1.629-6.258,2.295c-4.228,1.313-4.95-0.428-4.64-4.02c0.156-1.807-0.037-3.648-0.074-5.475
		c-0.022-5.131-0.043-10.264-0.063-15.395c0.021-1.131,0.045-2.258,0.067-3.391c2.31,4.107,2.458,8.723,3.071,13.215
		c0.606,4.438,4.106,7.066,8.233,5.818C428.405,321.691,434.978,320.758,441.582,319.945z"/>
	<path fill-rule="evenodd" clip-rule="evenodd" fill="#8C7C5C" d="M384.531,275.781c-0.035-3.215,1.579-5.643,3.991-7.453
		c3.991-2.99,7.96-6.047,12.688-8.35c1.146,7.09-4.106,9.092-8.474,11.641c-2.645,1.541-5.463,2.783-8.206,4.16V275.781z"/>
	<path fill-rule="evenodd" clip-rule="evenodd" fill="#A8946B" d="M401.82,259.37c0.899-2.605-0.879-4.902,1.133-6.16
		c2.825-1.761,5.909-3.155,9.003-4.417c1.168-0.477,1.916,0.774,2.421,1.849c0.579,1.241-0.144,1.752-1.08,2.274
		C409.782,254.866,406.29,256.852,401.82,259.37z"/>
	<path fill-rule="evenodd" clip-rule="evenodd" fill="#FFFFFF" d="M479.611,180.698c0-4.245,0-8.488,0-12.733"/>
	<path fill-rule="evenodd" clip-rule="evenodd" fill="#E6E6E5" d="M479.611,193.435c0-4.246,0-8.491,0-12.736"/>
	<path fill-rule="evenodd" clip-rule="evenodd" fill="#FFFFFF" d="M479.611,206.167c0-4.245,0-8.488,0-12.732"/>
	<path fill-rule="evenodd" clip-rule="evenodd" fill="#E6E6E5" d="M479.611,218.903c0-4.246,0-8.491,0-12.736"/>
	<path fill-rule="evenodd" clip-rule="evenodd" fill="#FFFFFF" d="M479.611,231.636c0-4.244,0-8.487,0-12.732"/>
	<path fill-rule="evenodd" clip-rule="evenodd" fill="#E6E6E5" d="M479.611,244.373c0-4.246,0-8.491,0-12.737"/>
	<path fill-rule="evenodd" clip-rule="evenodd" fill="#FFFFFF" d="M479.611,257.107c0-4.247,0-8.491,0-12.735"/>
	<path fill-rule="evenodd" clip-rule="evenodd" fill="#E6E6E5" d="M479.611,269.844c0-4.246,0-8.491,0-12.736"/>
	<path fill-rule="evenodd" clip-rule="evenodd" fill="#FFFFFF" d="M479.611,282.574c0-4.242,0-8.488,0-12.73"/>
	<path fill-rule="evenodd" clip-rule="evenodd" fill="#E6E6E5" d="M479.611,295.311c0-4.244,0-8.49,0-12.736"/>
	<path fill-rule="evenodd" clip-rule="evenodd" fill="#FFFFFF" d="M479.611,308.045c0-4.246,0-8.49,0-12.734"/>
	<path fill-rule="evenodd" clip-rule="evenodd" fill="#E6E6E5" d="M479.611,320.781c0-4.246,0-8.49,0-12.736"/>
	<path fill-rule="evenodd" clip-rule="evenodd" fill="#FFFFFF" d="M479.611,333.516c0-4.246,0-8.488,0-12.734"/>
	<path fill-rule="evenodd" clip-rule="evenodd" fill="#E6E6E5" d="M479.611,346.252c0-4.248,0-8.494,0-12.736"/>
	<path fill-rule="evenodd" clip-rule="evenodd" fill="#FFFFFF" d="M479.611,358.984c0-4.246,0-8.488,0-12.732"/>
	<path fill-rule="evenodd" clip-rule="evenodd" fill="#E6E6E5" d="M467.878,129.035"/>
	<path fill-rule="evenodd" clip-rule="evenodd" fill="#E6E6E5" d="M479.607,142.49l0.008,0.011"/>
	<path fill-rule="evenodd" clip-rule="evenodd" fill="#8E7D5D" d="M202.302,371.438c0-4.838-0.034-9.676,0.01-14.516
		c0.035-3.908,2.084-5.172,5.728-3.863c7.719,2.768,14.9,6.662,22.176,10.355c2.054,1.045,3.135,2.92,3.154,5.17
		c0.072,8.568,0.127,17.139-0.023,25.703c-0.047,2.814-1.924,4.16-4.616,3.043c-7.958-3.297-15.492-7.447-22.667-12.195
		c-2.138-1.418-3.404-3.652-3.249-6.488c0.131-2.398,0.027-4.807,0.027-7.209C202.662,371.438,202.482,371.438,202.302,371.438z"/>
	<path fill-rule="evenodd" clip-rule="evenodd" fill="#8E7D5D" d="M119.648,357.215c0,2.244,0.144,3.951-0.032,5.627
		c-0.322,3.102,1.002,5.236,3.721,6.416c3.798,1.654,5.098,4.529,4.829,8.475c-0.152,2.248-0.122,4.516-0.005,6.766
		c0.15,2.922-1.486,3.494-3.71,2.691c-3.416-1.234-6.691-2.826-9.749-4.838c-2.357-1.551-2.124-3.969-1.782-6.105
		c0.771-4.828-1.418-7.451-5.794-8.559c-1.589-0.402-2.642-1.602-4.089-2.125c-3.18-1.15-4.007-3.473-3.816-6.668
		c0.305-5.127,0.503-10.271,0.364-15.4c-0.078-2.869,1.061-3.678,3.454-2.918c5.543,1.764,10.517,4.785,15.204,8.086
		C121.354,350.855,118.911,354.738,119.648,357.215z"/>
	<path fill-rule="evenodd" clip-rule="evenodd" fill="#8C7C5C" d="M158.637,366.678c7.147,2.553,13.738,6.273,20.387,9.85
		c1.586,0.855,2.647,2.359,2.617,4.5c-0.096,7.26-0.052,14.52-0.046,21.781c0,1.129-0.358,1.92-1.613,2.025
		c-0.882-0.033-1.612-0.365-2.27-0.971c-5.368-4.951-10.805-9.83-16.092-14.861c-1.169-1.115-1.848-2.615-2.165-4.43
		C158.42,378.621,157.947,372.686,158.637,366.678z"/>
	<path fill-rule="evenodd" clip-rule="evenodd" fill="#6E6948" d="M158.637,366.678c-0.69,6.008-0.217,11.943,0.819,17.895
		c0.317,1.814,0.995,3.314,2.165,4.43c5.287,5.031,10.724,9.91,16.092,14.861c0.658,0.605,1.388,0.938,2.27,0.971
		c0.183,1.877-0.766,2.688-2.554,2.709c-5.503-2.986-10.966-6.055-17.034-7.811c-3.194-1.307-4.945-3.916-5-7.133
		c-0.128-7.4-0.122-14.807-0.871-22.176C154.183,367.078,155.646,366.148,158.637,366.678z"/>
	<path fill-rule="evenodd" clip-rule="evenodd" fill="#9A8760" d="M314.048,426.48c0.583-5.969-0.415-11.945-0.148-17.941
		c0.205-4.627,2.626-7.494,6.047-9.521c7.875-4.668,15.915-9.08,24.021-13.336c6.699-3.514,7.052-2.752,7.709,4.982
		c0.756,8.881,0.234,17.732,0.633,26.584c0.144,3.135-1.168,5.07-3.799,6.422c-9.766,5.02-19.491,10.115-29.295,15.057
		c-3.891,1.961-4.934,1.297-5.139-3.012C313.929,432.643,314.048,429.563,314.048,426.48z"/>
	<path fill-rule="evenodd" clip-rule="evenodd" fill="#8C7C5C" d="M441.582,319.945c-6.604,0.813-13.177,1.746-19.582,3.682
		c-4.127,1.248-7.627-1.381-8.233-5.818c-0.613-4.492-0.762-9.107-3.071-13.215c-0.913-3.92-0.388-7.32,3.438-9.545
		c7.307-4.256,15.274-7.096,22.953-10.533c4.459-1.99,6.422-0.26,6.474,4.666c0.092,9.08,0.166,18.16,0.25,27.242
		C443.826,318.078,443.483,319.504,441.582,319.945z"/>
	<path fill-rule="evenodd" clip-rule="evenodd" fill="#8C7C5C" d="M379.606,365.016c-0.339-0.938-0.68-1.879-1.019-2.813
		c0.047-0.139,0.092-0.277,0.133-0.422c5.166-6.24,11.894-10.076,19.278-13.158c3.918-1.635,5.078,0.543,5.235,3.252
		c0.325,5.592,0.013,11.221-0.028,16.832c-0.004,0.883-0.269,1.303-1.168,1.857c-4.52,2.795-8.791,5.986-13.329,8.74
		c-3.494,2.117-6.945,1.244-8.398-1.664c1.071-4.303,2.476-8.631,0.766-13.035C380.406,362.887,380.169,365.059,379.606,365.016z"/>
	<path fill-rule="evenodd" clip-rule="evenodd" fill="#9A8760" d="M378.721,361.781c-0.041,0.145-0.086,0.283-0.133,0.422
		c-3.328,0.391-5.989,2.4-8.89,3.789c-7.088,3.387-8.014,3.236-8.247-4.25c-0.156-5.02-1.009-10.121,0.069-15.182
		c0.283-1.332,0.646-2.609,1.821-3.16c4.962-2.328,9.341-5.75,14.6-7.555c2.857-0.98,4.025-0.174,4.034,2.701
		c0.012,4.373-0.015,8.744,0.008,13.115c0.013,2.826-3.162,4.309-2.971,7.227C379.074,359.842,378.828,360.816,378.721,361.781z"/>
	<path fill-rule="evenodd" clip-rule="evenodd" fill="#9A8760" d="M300.374,381.625c0,2.367,0.224,4.076-0.05,5.697
		c-0.47,2.791-1.144,5.555-4.377,6.633c-1.194,0.398-2.278,1.109-3.418,1.676c-7.96,3.971-8.82,3.33-8.855-5.619
		c-0.021-6.102,2.147-10.469,8.061-12.723c2.492-0.951,4.287-4.654,7.25-3.115C302.275,375.885,299.637,379.621,300.374,381.625z"/>
	<path fill-rule="evenodd" clip-rule="evenodd" fill="#675A40" d="M379.606,365.016c0.563,0.043,0.8-2.129,1.47-0.41
		c1.71,4.404,0.306,8.732-0.766,13.035C379.764,373.449,380.836,369.168,379.606,365.016z"/>
</g>
</svg>
